# xmcd
#
# Track frame offsets: 
#        150
#        19723
#        38058
#        59740
#        91183
#        111768
#        132828
#        154240
#        168828
#        185203
#        209568
#        223813
#        240210
#        254895
#
# Disc length: 3608 seconds
#
# Revision: 5
# Processed by: cddbd v1.5.2PL0 Copyright (c) Steve Scherf et al.
# Submitted via: ExactAudioCopy v0.95b3
#
DISCID=cc0e160e
DTITLE=Nelson, Willie - Across The Borderline
DYEAR=1993
DGENRE=Country
TTITLE0=American Tune
TTITLE1=Getting Over You
TTITLE2=(The) Most Unoriginal Sin
TTITLE3=Don't Give Up
TTITLE4=Heartland
TTITLE5=Across The Borderline
TTITLE6=Graceland
TTITLE7=Farther Down The Line
TTITLE8=Valentine
TTITLE9=What Was It You Wanted
TTITLE10=I Love The Life I Live
TTITLE11=If I Were The Man You Wanted
TTITLE12=She's Not For You
TTITLE13=Still Is Still Moving To Me
EXTD=YEAR: 1993
EXTT0=
EXTT1=
EXTT2=
EXTT3=
EXTT4=
EXTT5=
EXTT6=
EXTT7=
EXTT8=
EXTT9=
EXTT10=
EXTT11=
EXTT12=
EXTT13=
PLAYORDER=
